<?xml version="1.0" encoding="UTF-8"?>
<svg width="416px" height="81px" viewBox="0 0 416 81" version="1.1" xmlns="http://www.w3.org/2000/svg" xmlns:xlink="http://www.w3.org/1999/xlink">
    <!-- Generator: Sketch 63.1 (92452) - https://sketch.com -->
    <title>(RSVP)</title>
    <desc>Created with Sketch.</desc>
    <g id="Page-1" stroke="none" stroke-width="1" fill="none" fill-rule="evenodd">
        <g id="Desktop" transform="translate(-307.000000, -189.000000)" fill="#444444" fill-rule="nonzero">
            <path d="M319.773438,251.630859 C320.808594,251.630859 321.521484,251.074219 321.912109,249.960938 C321.912109,249.296875 321.707031,248.701172 321.296875,248.173828 C319.285156,247.353516 317.683594,246.503906 316.492188,245.625 C313.074219,242.695312 311.365234,239.140625 311.365234,234.960938 C311.365234,233.359375 311.902344,231.669922 312.976562,229.892578 C316.746094,225.322266 322.253906,223.037109 329.5,223.037109 L329.5,223.037109 L329.617188,223.037109 C332.390625,223.037109 335.398438,223.496094 338.640625,224.414062 C359.949219,233.339844 380.574219,237.802734 400.515625,237.802734 C410.808594,237.802734 420.75,236.621094 430.339844,234.257812 C438.308594,232.226562 443.933594,230.341797 447.214844,228.603516 C450.085938,227.509766 451.521484,226.464844 451.521484,225.46875 L451.521484,225.46875 L451.521484,225.117188 C451.521484,224.257812 451.003906,223.662109 449.96875,223.330078 L449.96875,223.330078 L449.617188,223.330078 C449.304688,223.330078 447.488281,224.130859 444.167969,225.732422 C430.574219,231.083984 416.726562,233.759766 402.625,233.759766 L402.625,233.759766 L398.523438,233.759766 C382.644531,233.759766 365.476562,230.341797 347.019531,223.505859 C340.554688,220.576172 334.949219,219.111328 330.203125,219.111328 L330.203125,219.111328 L328.914062,219.111328 C324.988281,219.111328 321.130859,219.951172 317.341797,221.630859 C310.740234,224.931641 307.439453,229.335938 307.439453,234.84375 C307.439453,237.636719 308.132812,240.488281 309.519531,243.398438 C311.863281,247.5 315.28125,250.244141 319.773438,251.630859 Z M461.042969,245.742188 C462.390625,245.742188 463.748047,245.576172 465.115234,245.244141 C468.220703,244.189453 471.208984,241.591797 474.080078,237.451172 C476.794922,233.115234 478.748047,229.189453 479.939453,225.673828 L479.939453,225.673828 L479.939453,225.351562 C479.685547,224.21875 479.246094,223.652344 478.621094,223.652344 L478.621094,223.652344 L478.152344,223.652344 C477.136719,223.652344 476.355469,224.560547 475.808594,226.376953 C473.992188,230.712891 471.658203,234.765625 468.806641,238.535156 C466.228516,240.957031 463.796875,242.167969 461.511719,242.167969 L461.511719,242.167969 L460.925781,242.167969 C459.578125,242.167969 458.689453,241.064453 458.259766,238.857422 L458.259766,238.857422 L458.259766,238.505859 C459.060547,232.626953 460.261719,228.417969 461.863281,225.878906 C463.367188,224.082031 464.119141,222.958984 464.119141,222.509766 C464.119141,221.416016 463.455078,220.820312 462.126953,220.722656 C461.443359,220.722656 460.730469,221.005859 459.988281,221.572266 C457.292969,223.818359 454.910156,224.941406 452.839844,224.941406 C452.019531,224.941406 451.619141,225.117188 451.638672,225.46875 C451.541016,225.46875 451.619141,225.097656 451.873047,224.355469 C453.279297,222.109375 454.080078,219.902344 454.275391,217.734375 L454.275391,217.734375 L454.275391,216.826172 C453.845703,214.345703 452.703125,213.105469 450.847656,213.105469 C450.320312,213.105469 449.519531,213.339844 448.445312,213.808594 C445.574219,216.328125 444.138672,218.886719 444.138672,221.484375 L444.138672,221.484375 L444.255859,222.65625 C445.583984,226.5625 448.289062,228.515625 452.371094,228.515625 C453.230469,228.515625 454.578125,228.359375 456.414062,228.046875 L456.414062,228.046875 L456.443,228.047 L456.443359,228.369141 C455.250178,232.07919 454.626469,235.130787 454.572233,237.52393 L454.568359,237.861328 L454.568359,238.798828 C454.568359,239.462891 454.65625,240.234375 454.832031,241.113281 C455.964844,244.199219 458.035156,245.742188 461.042969,245.742188 Z M448.269531,222.597656 C448.054688,222.597656 447.947266,222.294922 447.947266,221.689453 C447.947266,221.357422 448.015625,220.917969 448.152344,220.371094 C448.992188,217.910156 449.773438,216.679688 450.496094,216.679688 C450.496094,216.679688 450.525391,216.845703 450.583984,217.177734 C450.583984,217.587891 450.515625,218.046875 450.378906,218.554688 C449.597656,221.25 448.894531,222.597656 448.269531,222.597656 Z M485.359375,248.583984 C486.902344,248.583984 488.435547,248.242188 489.958984,247.558594 C493.240234,245.136719 494.880859,242.65625 494.880859,240.117188 C494.880859,237.364823 492.925706,234.927272 489.015398,232.804533 L488.772,232.676 L488.828985,232.652003 C489.718225,232.290702 490.199203,232.07786 490.271917,232.013477 L490.28125,232.001953 C494.871094,230.380859 500.574219,228.916016 507.390625,227.607422 C509.441406,227.412109 510.466797,226.660156 510.466797,225.351562 C510.466797,224.394531 509.890625,223.710938 508.738281,223.300781 L508.738281,223.300781 L500.916016,224.882812 C492.732422,226.933594 487.253906,228.730469 484.480469,230.273438 C483.369358,229.83941 482.034481,228.849826 480.475839,227.304688 L480.298,227.127 L480.418159,227.057648 C480.866005,226.798248 481.493141,226.40152 482.299568,225.867462 L482.546875,225.703125 C485.457031,222.949219 486.912109,220.605469 486.912109,218.671875 L486.912109,218.671875 L486.912109,217.617188 C486.912109,215.625 485.662109,214.482422 483.162109,214.189453 L483.162109,214.189453 L482.664062,214.189453 C481.902344,214.189453 480.916016,214.453125 479.705078,214.980469 C475.876953,217.792969 473.962891,220.351562 473.962891,222.65625 C473.962891,226.40625 476.277344,229.775391 480.90625,232.763672 C477.761719,235.107422 476.189453,237.792969 476.189453,240.820312 C476.189453,241.542969 476.414062,242.519531 476.863281,243.75 C479.070312,246.972656 481.902344,248.583984 485.359375,248.583984 Z M478.387109,223.671517 L478.064453,223.857422 C478.005859,223.759766 477.947266,223.486328 477.888672,223.037109 C477.966797,222.626953 478.005859,222.382812 478.005859,222.304688 C479.841797,219.511719 481.433594,218.115234 482.78125,218.115234 L482.78125,218.115234 L482.982,218.116 L482.980859,218.175423 C482.878776,220.101031 481.347526,221.933062 478.387109,223.671517 Z M485.59375,244.658203 L485.095703,244.658203 C481.853516,243.896484 480.232422,242.773438 480.232422,241.289062 L480.232422,241.289062 L480.232422,240.351562 C480.232422,238.886719 481.658203,237.060547 484.509766,234.873047 C488.728516,236.923828 490.837891,238.59375 490.837891,239.882812 L490.837891,239.882812 L490.837891,240.351562 C489.841797,243.222656 488.09375,244.658203 485.59375,244.658203 L485.59375,244.658203 Z M509.089844,245.361328 C512.15625,245.361328 516.355469,240.976562 521.6875,232.207031 C522.996094,229.394531 523.728516,227.96875 523.884766,227.929688 L523.884766,227.929688 L524.001953,227.958984 C525.564453,230.185547 528.09375,231.298828 531.589844,231.298828 L531.589844,231.298828 L532.878906,231.298828 C534.851562,231.298828 539.509766,230.048828 546.853516,227.548828 C550.291016,227.216797 552.009766,226.347656 552.009766,224.941406 C552.009766,223.945312 551.277344,223.349609 549.8125,223.154297 C549.128906,223.154297 547.273438,223.671875 544.246094,224.707031 C538.328125,226.71875 534.578125,227.724609 532.996094,227.724609 L532.996094,227.724609 L531.589844,227.724609 C528.875,227.724609 527.517578,226.650391 527.517578,224.501953 L527.517578,224.501953 L527.869141,221.542969 C527.751953,220.117188 527.117188,219.404297 525.964844,219.404297 L525.964844,219.404297 L525.613281,219.404297 C525.261719,219.404297 524.871094,219.541016 524.441406,219.814453 C523.191406,221.181641 521.023438,224.638672 517.9375,230.185547 C513.289062,237.841797 510.457031,241.669922 509.441406,241.669922 L509.441406,241.669922 L509.207031,241.669922 C508.523438,241.435547 508.181641,240.3125 508.181641,238.300781 L508.181641,238.300781 L508.181641,237.949219 C508.181641,237.285156 508.835938,234.189453 510.144531,228.662109 C511.648438,224.169922 512.400391,221.210938 512.400391,219.785156 L512.400391,219.785156 L512.400391,218.496094 C512.400391,217.578125 512.166016,216.777344 511.697266,216.09375 C510.564453,214.472656 508.679688,213.662109 506.042969,213.662109 L506.042969,213.662109 L505.339844,213.662109 C502.9375,213.662109 500.105469,214.638672 496.84375,216.591797 C492.019531,220.322266 489.607422,222.792969 489.607422,224.003906 L489.607422,224.003906 L489.607422,224.707031 C490.173828,225.507812 490.730469,225.908203 491.277344,225.908203 C491.628906,225.908203 492.058594,225.732422 492.566406,225.380859 C497.683594,219.716797 502.332031,216.884766 506.511719,216.884766 C507.742188,216.884766 508.357422,217.617188 508.357422,219.082031 C508.357422,219.6875 508.132812,220.996094 507.683594,223.007812 C505.554688,229.902344 504.490234,234.726562 504.490234,237.480469 L504.490234,237.480469 L504.490234,240 C505.154297,243.574219 506.648438,245.361328 508.972656,245.361328 L508.972656,245.361328 L509.089844,245.361328 Z M544.978516,269.238281 C545.349609,269.238281 545.935547,269.150391 546.736328,268.974609 C548.416016,268.232422 550.046875,265.976562 551.628906,262.207031 C553.542969,256.699219 554.5,250.673828 554.5,244.130859 C554.5,239.892578 554.1875,234.101562 553.5625,226.757812 C553.5625,225.957031 553.953125,225.126953 554.734375,224.267578 C556.765625,222.529297 558.591797,221.660156 560.212891,221.660156 C562.087891,221.660156 563.445312,222.636719 564.285156,224.589844 C564.285156,224.765625 563.152344,225.410156 560.886719,226.523438 C557.839844,228.847656 556.316406,230.888672 556.316406,232.646484 L556.316406,232.646484 L556.316406,233.583984 C556.316406,234.306641 556.53125,235.185547 556.960938,236.220703 C557.585938,237.451172 559.138672,238.066406 561.619141,238.066406 C562.537109,238.066406 563.855469,237.734375 565.574219,237.070312 C568.035156,235.605469 569.265625,232.607422 569.265625,228.076172 C569.265625,227.236328 569.919922,226.816406 571.228516,226.816406 C576.476842,226.742746 579.841295,226.703811 581.321875,226.699601 L581.570312,226.699219 C583.132812,226.5625 583.914062,225.927734 583.914062,224.794922 C583.914062,223.603516 583.152344,223.007812 581.628906,223.007812 C576.628906,223.398438 573.201172,223.59375 571.345703,223.59375 C569.783203,223.59375 568.787109,223.466797 568.357422,223.212891 C566.248047,219.951172 563.728516,218.320312 560.798828,218.320312 C559.392578,218.320312 557.527344,218.691406 555.203125,219.433594 C550.710938,222.246094 548.464844,224.580078 548.464844,226.435547 C546.785156,228.837891 544.919922,233.662109 542.869141,240.908203 C540.896484,251.044922 539.910156,257.353516 539.910156,259.833984 C539.910156,260.986328 540.027344,262.285156 540.261719,263.730469 C541.0625,267.402344 542.595703,269.238281 544.861328,269.238281 L544.861328,269.238281 L544.978516,269.238281 Z M561.267578,234.960938 L560.798828,234.960938 C560.349609,234.960938 560.046875,234.580078 559.890625,233.818359 C560.007812,233.251953 560.242188,232.607422 560.59375,231.884766 C562.488281,229.677734 564.001953,228.574219 565.134766,228.574219 L565.134766,228.574219 L565.457031,228.574219 L565.457031,228.574219 L565.457031,229.833984 C565.457031,230.634766 565.398438,231.162109 565.28125,231.416016 C564.441406,233.779297 563.103516,234.960938 561.267578,234.960938 L561.267578,234.960938 Z M545.095703,265.429688 L544.744141,265.429688 C545.154297,265.429688 545.359375,265.390625 545.359375,265.3125 C544.558594,265.3125 544.089844,263.525391 543.953125,259.951172 C543.953125,255.869141 544.958984,249.511719 546.970703,240.878906 C547.908203,236.582031 548.972656,233.642578 550.164062,232.060547 L550.164062,232.060547 L550.339844,232.207031 C550.398438,232.207031 550.515625,236.103516 550.691406,243.896484 L550.691406,243.896484 L550.691406,245.537109 C550.691406,250.634766 549.724609,255.712891 547.791016,260.771484 C546.873047,263.876953 545.974609,265.429688 545.095703,265.429688 L545.095703,265.429688 Z M581.423828,227.724609 C593.923828,224.501953 606.814453,222.890625 620.095703,222.890625 C627.537109,222.890625 634.294922,223.398438 640.369141,224.414062 C652.654297,226.523438 663.708984,227.578125 673.533203,227.578125 C687.888672,227.578125 699.617188,225.683594 708.71875,221.894531 C711.003906,221.035156 713.494141,219.599609 716.189453,217.587891 C720.427734,214.033203 722.546875,210.166016 722.546875,205.986328 L722.546875,205.986328 L722.546875,204.462891 C722.546875,200.751953 721.472656,197.470703 719.324219,194.619141 C716.335938,191.240234 712.478516,189.550781 707.751953,189.550781 L707.751953,189.550781 L706.697266,189.550781 C702.458984,189.550781 700.339844,190.273438 700.339844,191.71875 C700.476562,193.203125 701.042969,193.945312 702.039062,193.945312 C704.949219,193.632812 706.580078,193.476562 706.931641,193.476562 C708.884766,193.476562 710.857422,193.847656 712.849609,194.589844 C716.697266,196.367188 718.621094,199.970703 718.621094,205.400391 C718.621094,208.720703 716.960938,211.767578 713.640625,214.541016 C705.28125,220.537109 692.107422,223.535156 674.119141,223.535156 L674.119141,223.535156 L673.064453,223.535156 C665.876953,223.535156 658.298828,222.988281 650.330078,221.894531 C639.099609,219.863281 629.021484,218.847656 620.095703,218.847656 C608.220703,218.847656 596.609375,220.136719 585.261719,222.714844 C581.433594,223.359375 579.519531,224.189453 579.519531,225.205078 L579.519531,225.205078 L579.519531,225.791016 C579.519531,226.728516 580.154297,227.373047 581.423828,227.724609 Z" id="(RSVP)"></path>
        </g>
    </g>
</svg>